<?xml version="1.0" encoding="UTF-8" standalone="no"?>
<!-- Created with Inkscape (http://www.inkscape.org/) -->

<svg
   xmlns:dc="http://purl.org/dc/elements/1.1/"
   xmlns:cc="http://creativecommons.org/ns#"
   xmlns:rdf="http://www.w3.org/1999/02/22-rdf-syntax-ns#"
   xmlns:svg="http://www.w3.org/2000/svg"
   xmlns="http://www.w3.org/2000/svg"
   xmlns:sodipodi="http://sodipodi.sourceforge.net/DTD/sodipodi-0.dtd"
   xmlns:inkscape="http://www.inkscape.org/namespaces/inkscape"
   width="1080"
   height="1080"
   viewBox="0 0 285.75001 285.75001"
   version="1.1"
   id="svg8"
   inkscape:version="0.92.5 (2060ec1f9f, 2020-04-08)"
   sodipodi:docname="MN.svg">
  <defs
     id="defs2" />
  <sodipodi:namedview
     id="base"
     pagecolor="#ffffff"
     bordercolor="#666666"
     borderopacity="1.0"
     inkscape:pageopacity="0.0"
     inkscape:pageshadow="2"
     inkscape:zoom="0.7"
     inkscape:cx="672.04995"
     inkscape:cy="398.9401"
     inkscape:document-units="mm"
     inkscape:current-layer="g2002"
     showgrid="false"
     units="px"
     inkscape:window-width="1848"
     inkscape:window-height="1016"
     inkscape:window-x="72"
     inkscape:window-y="1107"
     inkscape:window-maximized="1" />
  <metadata
     id="metadata5">
    <rdf:RDF>
      <cc:Work
         rdf:about="">
        <dc:format>image/svg+xml</dc:format>
        <dc:type
           rdf:resource="http://purl.org/dc/dcmitype/StillImage" />
        <dc:title />
      </cc:Work>
    </rdf:RDF>
  </metadata>
  <g
     inkscape:label="Layer 1"
     inkscape:groupmode="layer"
     id="layer1"
     transform="translate(0,-11.249939)">
    <rect
       style="opacity:1;fill:#fef4eb;fill-opacity:1;stroke:none;stroke-width:19.16255569;stroke-linecap:round;stroke-linejoin:miter;stroke-miterlimit:4;stroke-dasharray:none;stroke-opacity:1;paint-order:markers fill stroke"
       id="rect2004"
       width="285.75"
       height="285.75"
       x="0"
       y="11.249939"
       ry="5.2749038" />
    <g
       id="g2002"
       transform="translate(669.47481,-112.85201)">
      <g
         aria-label="movimiento"
         style="font-style:normal;font-weight:normal;font-size:24.98549843px;line-height:1.25;font-family:sans-serif;letter-spacing:0px;word-spacing:0px;fill:#ef8829;fill-opacity:1;stroke:none;stroke-width:0.62463748"
         id="text817-3">
        <path
           d="m -593.51038,330.83859 q 0,0.6222 -0.4392,1.037 -0.43919,0.4392 -1.03699,0.4392 h -0.0366 q -0.5978,0 -1.037,-0.4392 -0.4392,-0.4148 -0.4392,-1.037 v -6.70997 q 0,-2.41559 1.7202,-4.14798 1.72019,-1.72019 4.14798,-1.72019 2.90359,0 4.37978,1.92759 1.464,-1.92759 4.36759,-1.92759 2.42779,0 4.14798,1.72019 1.72019,1.73239 1.72019,4.14798 v 6.70997 q 0,0.61 -0.427,1.037 -0.4392,0.4392 -1.04919,0.4392 h -0.0244 q -0.6222,0 -1.037,-0.4392 -0.4392,-0.4148 -0.4392,-1.037 v -6.70997 q 0,-1.19559 -0.84179,-2.03739 -0.8418,-0.8418 -2.04959,-0.8418 -1.1956,0 -2.0374,0.8418 -0.84179,0.8418 -0.84179,2.03739 v 6.70997 q 0,0.6222 -0.4392,1.037 -0.4148,0.4392 -1.037,0.4392 h -0.0244 q -0.60999,0 -1.04919,-0.4392 -0.4392,-0.4148 -0.4392,-1.037 v -6.70997 q 0,-1.19559 -0.8418,-2.03739 -0.84179,-0.8418 -2.03739,-0.8418 -1.19559,0 -2.03739,0.8418 -0.8418,0.8418 -0.8418,2.03739 z"
           style="font-style:normal;font-variant:normal;font-weight:normal;font-stretch:normal;font-family:'Typo Round Bold Demo';-inkscape-font-specification:'Typo Round Bold Demo';fill:#ef8829;fill-opacity:1;stroke-width:0.62463748"
           id="path832" />
        <path
           d="m -566.91449,321.27383 q -1.68359,0 -2.86698,1.1834 -1.1712,1.18339 -1.1712,2.86699 0,1.67139 1.1712,2.85479 1.18339,1.18339 2.86698,1.18339 1.6714,0 2.85479,-1.18339 1.1834,-1.1834 1.1834,-2.85479 0,-1.6836 -1.1834,-2.86699 -1.18339,-1.1834 -2.85479,-1.1834 z m 0,-3.01338 q 2.90359,0 4.96538,2.06179 2.0618,2.06179 2.0618,4.96538 0,2.90359 -2.0618,4.96538 -2.06179,2.06179 -4.96538,2.06179 -2.90358,0 -4.96538,-2.06179 -2.06179,-2.06179 -2.06179,-4.96538 0,-2.90359 2.06179,-4.96538 2.0618,-2.06179 4.96538,-2.06179 z"
           style="font-style:normal;font-variant:normal;font-weight:normal;font-stretch:normal;font-family:'Typo Round Bold Demo';-inkscape-font-specification:'Typo Round Bold Demo';fill:#ef8829;fill-opacity:1;stroke-width:0.62463748"
           id="path834" />
        <path
           d="m -552.04275,328.17901 3.86739,-9.01577 q 0.3904,-0.90279 1.36639,-0.90279 h 0.0244 q 0.793,0 1.2322,0.67099 0.2562,0.3782 0.2562,0.793 0,0.2928 -0.1342,0.5978 l -4.52618,10.57735 q -0.5612,1.4152 -2.074,1.4152 -1.53719,0 -2.08619,-1.4152 l -4.53838,-10.57735 q -0.122,-0.305 -0.122,-0.5856 0,-0.4148 0.2562,-0.8052 0.4392,-0.67099 1.2322,-0.67099 h 0.0366 q 0.97599,0 1.35419,0.90279 2.91579,6.81977 3.36719,7.85677 0,0.0488 0.48799,1.159 z"
           style="font-style:normal;font-variant:normal;font-weight:normal;font-stretch:normal;font-family:'Typo Round Bold Demo';-inkscape-font-specification:'Typo Round Bold Demo';fill:#ef8829;fill-opacity:1;stroke-width:0.62463748"
           id="path836" />
        <path
           d="m -541.85579,318.26045 q 0.6222,0 1.037,0.43919 0.4392,0.4392 0.4392,1.0492 v 11.08975 q 0,0.6222 -0.4392,1.037 -0.4148,0.4392 -1.037,0.4392 h -0.0244 q -0.60999,0 -1.04919,-0.4392 -0.4392,-0.4148 -0.4392,-1.037 v -11.08975 q 0,-0.61 0.4392,-1.0492 0.4392,-0.43919 1.04919,-0.43919 z m -0.0122,-1.586 q -0.70759,0 -1.20779,-0.5002 -0.5002,-0.50019 -0.5002,-1.20779 0,-0.6954 0.5002,-1.1956 0.5002,-0.50019 1.20779,-0.50019 0.6954,0 1.1956,0.50019 0.5124,0.488 0.5124,1.1956 0,0.7198 -0.5124,1.20779 -0.5002,0.5002 -1.1956,0.5002 z"
           style="font-style:normal;font-variant:normal;font-weight:normal;font-stretch:normal;font-family:'Typo Round Bold Demo';-inkscape-font-specification:'Typo Round Bold Demo';fill:#ef8829;fill-opacity:1;stroke-width:0.62463748"
           id="path838" />
        <path
           d="m -534.48702,330.83859 q 0,0.6222 -0.43919,1.037 -0.4392,0.4392 -1.037,0.4392 h -0.0366 q -0.5978,0 -1.037,-0.4392 -0.43919,-0.4148 -0.43919,-1.037 v -6.70997 q 0,-2.41559 1.72019,-4.14798 1.72019,-1.72019 4.14798,-1.72019 2.90359,0 4.37978,1.92759 1.464,-1.92759 4.36759,-1.92759 2.42779,0 4.14798,1.72019 1.72019,1.73239 1.72019,4.14798 v 6.70997 q 0,0.61 -0.427,1.037 -0.43919,0.4392 -1.04919,0.4392 h -0.0244 q -0.6222,0 -1.037,-0.4392 -0.4392,-0.4148 -0.4392,-1.037 v -6.70997 q 0,-1.19559 -0.84179,-2.03739 -0.8418,-0.8418 -2.04959,-0.8418 -1.1956,0 -2.0374,0.8418 -0.84179,0.8418 -0.84179,2.03739 v 6.70997 q 0,0.6222 -0.4392,1.037 -0.4148,0.4392 -1.037,0.4392 h -0.0244 q -0.60999,0 -1.04919,-0.4392 -0.4392,-0.4148 -0.4392,-1.037 v -6.70997 q 0,-1.19559 -0.8418,-2.03739 -0.84179,-0.8418 -2.03739,-0.8418 -1.19559,0 -2.03739,0.8418 -0.8418,0.8418 -0.8418,2.03739 z"
           style="font-style:normal;font-variant:normal;font-weight:normal;font-stretch:normal;font-family:'Typo Round Bold Demo';-inkscape-font-specification:'Typo Round Bold Demo';fill:#ef8829;fill-opacity:1;stroke-width:0.62463748"
           id="path840" />
        <path
           d="m -512.58811,318.26045 q 0.6222,0 1.037,0.43919 0.4392,0.4392 0.4392,1.0492 v 11.08975 q 0,0.6222 -0.4392,1.037 -0.4148,0.4392 -1.037,0.4392 h -0.0244 q -0.60999,0 -1.04919,-0.4392 -0.4392,-0.4148 -0.4392,-1.037 v -11.08975 q 0,-0.61 0.4392,-1.0492 0.4392,-0.43919 1.04919,-0.43919 z m -0.0122,-1.586 q -0.70759,0 -1.20779,-0.5002 -0.5002,-0.50019 -0.5002,-1.20779 0,-0.6954 0.5002,-1.1956 0.5002,-0.50019 1.20779,-0.50019 0.6954,0 1.1956,0.50019 0.5124,0.488 0.5124,1.1956 0,0.7198 -0.5124,1.20779 -0.5002,0.5002 -1.1956,0.5002 z"
           style="font-style:normal;font-variant:normal;font-weight:normal;font-stretch:normal;font-family:'Typo Round Bold Demo';-inkscape-font-specification:'Typo Round Bold Demo';fill:#ef8829;fill-opacity:1;stroke-width:0.62463748"
           id="path842" />
        <path
           d="m -501.54715,321.27383 q -1.6836,0 -2.86699,1.1834 -1.1712,1.18339 -1.1712,2.86699 v 0.0854 l 6.81977,-3.06219 q -0.90279,-1.0736 -2.78158,-1.0736 z m 6.38057,1.0858 q 0.1464,0.305 0.1464,0.6222 0,0.2562 -0.0976,0.51239 -0.2074,0.5734 -0.7808,0.8296 -1.70799,0.7686 -4.48958,2.02519 -3.45258,1.5616 -4.05038,1.8422 0.92719,1.17119 2.89139,1.17119 1.30539,0 2.36679,-0.7686 1.03699,-0.75639 1.45179,-1.95199 0.3538,-1.00039 1.41519,-1.00039 0.7564,0 1.2078,0.63439 0.2806,0.3904 0.2806,0.8174 0,0.2562 -0.0976,0.5246 -0.7198,2.08619 -2.52539,3.36718 -1.82999,1.3298 -4.09918,1.3298 -2.90359,0 -4.96538,-2.06179 -2.0618,-2.06179 -2.0618,-4.96538 0,-2.90359 2.0618,-4.96538 2.06179,-2.06179 4.96538,-2.06179 2.09839,0 3.83078,1.14679 1.72019,1.1224 2.54979,2.95239 z"
           style="font-style:normal;font-variant:normal;font-weight:normal;font-stretch:normal;font-family:'Typo Round Bold Demo';-inkscape-font-specification:'Typo Round Bold Demo';fill:#ef8829;fill-opacity:1;stroke-width:0.62463748"
           id="path844" />
        <path
           d="m -489.64,330.83859 q 0,0.6222 -0.4392,1.037 -0.4392,0.4392 -1.03699,0.4392 h -0.0366 q -0.5978,0 -1.037,-0.4392 -0.4392,-0.4148 -0.4392,-1.037 v -6.67337 q 0,-2.43999 1.73239,-4.17238 1.7324,-1.73239 4.17239,-1.73239 2.42779,0 4.16018,1.73239 1.73239,1.73239 1.73239,4.17238 v 6.67337 q 0,0.6222 -0.43919,1.037 -0.4148,0.4392 -1.037,0.4392 h -0.0244 q -0.61,0 -1.0492,-0.4392 -0.43919,-0.4148 -0.43919,-1.037 v -6.67337 q 0,-1.20779 -0.8418,-2.06179 -0.854,-0.854 -2.06179,-0.854 -1.22,0 -2.07399,0.854 -0.8418,0.854 -0.8418,2.06179 z"
           style="font-style:normal;font-variant:normal;font-weight:normal;font-stretch:normal;font-family:'Typo Round Bold Demo';-inkscape-font-specification:'Typo Round Bold Demo';fill:#ef8829;fill-opacity:1;stroke-width:0.62463748"
           id="path846" />
        <path
           d="m -476.87885,313.25847 q 0.5978,0 1.03699,0.42699 0.4392,0.4392 0.4392,1.0492 v 3.52579 h 1.82999 q 0.5978,0 1.037,0.43919 0.4392,0.4392 0.4392,1.0492 v 0.0244 q 0,0.6222 -0.4392,1.037 -0.4392,0.43919 -1.037,0.43919 h -1.82999 v 7.23457 q 0,0.3538 0.244,0.5978 0.244,0.244 0.61,0.244 h 0.97599 q 0.5978,0 1.037,0.4392 0.4392,0.4392 0.4392,1.04919 v 0.0244 q 0,0.6222 -0.4392,1.037 -0.4392,0.4392 -1.037,0.4392 h -0.97599 q -1.586,0 -2.72059,-1.1224 -1.1224,-1.13459 -1.1224,-2.70839 v -13.74934 q 0,-0.61 0.4392,-1.0492 0.4392,-0.42699 1.037,-0.42699 z"
           style="font-style:normal;font-variant:normal;font-weight:normal;font-stretch:normal;font-family:'Typo Round Bold Demo';-inkscape-font-specification:'Typo Round Bold Demo';fill:#ef8829;fill-opacity:1;stroke-width:0.62463748"
           id="path848" />
        <path
           d="m -463.72731,321.27383 q -1.68359,0 -2.86699,1.1834 -1.17119,1.18339 -1.17119,2.86699 0,1.67139 1.17119,2.85479 1.1834,1.18339 2.86699,1.18339 1.6714,0 2.85479,-1.18339 1.1834,-1.1834 1.1834,-2.85479 0,-1.6836 -1.1834,-2.86699 -1.18339,-1.1834 -2.85479,-1.1834 z m 0,-3.01338 q 2.90359,0 4.96538,2.06179 2.06179,2.06179 2.06179,4.96538 0,2.90359 -2.06179,4.96538 -2.06179,2.06179 -4.96538,2.06179 -2.90358,0 -4.96538,-2.06179 -2.06179,-2.06179 -2.06179,-4.96538 0,-2.90359 2.06179,-4.96538 2.0618,-2.06179 4.96538,-2.06179 z"
           style="font-style:normal;font-variant:normal;font-weight:normal;font-stretch:normal;font-family:'Typo Round Bold Demo';-inkscape-font-specification:'Typo Round Bold Demo';fill:#ef8829;fill-opacity:1;stroke-width:0.62463748"
           id="path850" />
      </g>
      <g
         aria-label="naranja"
         style="font-style:normal;font-weight:normal;font-size:38.44104004px;line-height:1.25;font-family:sans-serif;letter-spacing:0px;word-spacing:0px;fill:#ef8829;fill-opacity:1;stroke:none;stroke-width:0.96102583"
         id="text817-3-7">
        <path
           d="m -591.90074,362.82462 q 0,0.95727 -0.67572,1.59545 -0.67572,0.67572 -1.59546,0.67572 h -0.0563 q -0.91973,0 -1.59545,-0.67572 -0.67572,-0.63818 -0.67572,-1.59545 v -10.26721 q 0,-3.75401 2.66535,-6.41935 2.66534,-2.66535 6.41935,-2.66535 3.73524,0 6.40058,2.66535 2.66535,2.66534 2.66535,6.41935 v 10.26721 q 0,0.95727 -0.67572,1.59545 -0.63818,0.67572 -1.59546,0.67572 h -0.0375 q -0.9385,0 -1.61422,-0.67572 -0.67572,-0.63818 -0.67572,-1.59545 v -10.26721 q 0,-1.85824 -1.29513,-3.17214 -1.31391,-1.3139 -3.17214,-1.3139 -1.877,0 -3.19091,1.3139 -1.29513,1.3139 -1.29513,3.17214 z"
           style="font-style:normal;font-variant:normal;font-weight:normal;font-stretch:normal;font-family:'Typo Round Bold Demo';-inkscape-font-specification:'Typo Round Bold Demo';fill:#ef8829;fill-opacity:1;stroke-width:0.96102583"
           id="path853" />
        <path
           d="m -563.78322,343.47271 q 4.46727,0 7.6394,3.17214 3.17214,3.17213 3.17214,7.6394 v 8.54037 q 0,0.95727 -0.67572,1.59545 -0.67572,0.67572 -1.59545,0.67572 h -0.0563 q -0.91974,0 -1.59546,-0.67572 -0.67572,-0.63818 -0.67572,-1.59545 -2.13978,2.27117 -6.21288,2.27117 -4.46727,0 -7.63941,-3.17213 -3.17213,-3.17214 -3.17213,-7.63941 0,-4.46727 3.17213,-7.6394 3.17214,-3.17214 7.63941,-3.17214 z m 0,4.59866 q -2.59027,0 -4.41096,1.82069 -1.80192,1.8207 -1.80192,4.39219 0,2.59027 1.80192,4.41096 1.82069,1.80193 4.41096,1.80193 2.59026,0 4.39219,-1.80193 1.82069,-1.82069 1.82069,-4.41096 0,-2.57149 -1.82069,-4.39219 -1.8207,-1.82069 -4.39219,-1.82069 z"
           style="font-style:normal;font-variant:normal;font-weight:normal;font-stretch:normal;font-family:'Typo Round Bold Demo';-inkscape-font-specification:'Typo Round Bold Demo';fill:#ef8829;fill-opacity:1;stroke-width:0.96102583"
           id="path855" />
        <path
           d="m -539.87019,343.47271 q 0.9385,0 1.61422,0.67572 0.65695,0.67572 0.65695,1.61422 v 0.0375 q 0,0.93851 -0.65695,1.59546 -0.67572,0.67572 -1.61422,0.67572 h -1.06989 q -1.53915,0 -2.60904,1.06989 -1.05112,1.06989 -1.06989,2.60904 v 11.07432 q 0,0.95727 -0.67572,1.59545 -0.67572,0.67572 -1.59545,0.67572 h -0.0563 q -0.91974,0 -1.59546,-0.67572 -0.67572,-0.63818 -0.67572,-1.59545 V 351.7503 q 0.0375,-3.43492 2.42134,-5.85626 2.42133,-2.42133 5.85625,-2.42133 z"
           style="font-style:normal;font-variant:normal;font-weight:normal;font-stretch:normal;font-family:'Typo Round Bold Demo';-inkscape-font-specification:'Typo Round Bold Demo';fill:#ef8829;fill-opacity:1;stroke-width:0.96102583"
           id="path857" />
        <path
           d="m -524.72277,343.47271 q 4.46727,0 7.63941,3.17214 3.17213,3.17213 3.17213,7.6394 v 8.54037 q 0,0.95727 -0.67572,1.59545 -0.67572,0.67572 -1.59545,0.67572 h -0.0563 q -0.91973,0 -1.59546,-0.67572 -0.67572,-0.63818 -0.67572,-1.59545 -2.13978,2.27117 -6.21288,2.27117 -4.46727,0 -7.63941,-3.17213 -3.17213,-3.17214 -3.17213,-7.63941 0,-4.46727 3.17213,-7.6394 3.17214,-3.17214 7.63941,-3.17214 z m 0,4.59866 q -2.59026,0 -4.41096,1.82069 -1.80192,1.8207 -1.80192,4.39219 0,2.59027 1.80192,4.41096 1.8207,1.80193 4.41096,1.80193 2.59027,0 4.39219,-1.80193 1.82069,-1.82069 1.82069,-4.41096 0,-2.57149 -1.82069,-4.39219 -1.82069,-1.82069 -4.39219,-1.82069 z"
           style="font-style:normal;font-variant:normal;font-weight:normal;font-stretch:normal;font-family:'Typo Round Bold Demo';-inkscape-font-specification:'Typo Round Bold Demo';fill:#ef8829;fill-opacity:1;stroke-width:0.96102583"
           id="path859" />
        <path
           d="m -505.55856,362.82462 q 0,0.95727 -0.67572,1.59545 -0.67572,0.67572 -1.59546,0.67572 h -0.0563 q -0.91973,0 -1.59545,-0.67572 -0.67572,-0.63818 -0.67572,-1.59545 v -10.26721 q 0,-3.75401 2.66534,-6.41935 2.66535,-2.66535 6.41936,-2.66535 3.73524,0 6.40058,2.66535 2.66535,2.66534 2.66535,6.41935 v 10.26721 q 0,0.95727 -0.67573,1.59545 -0.63818,0.67572 -1.59545,0.67572 h -0.0375 q -0.9385,0 -1.61422,-0.67572 -0.67572,-0.63818 -0.67572,-1.59545 v -10.26721 q 0,-1.85824 -1.29514,-3.17214 -1.3139,-1.3139 -3.17213,-1.3139 -1.87701,0 -3.19091,1.3139 -1.29513,1.3139 -1.29513,3.17214 z"
           style="font-style:normal;font-variant:normal;font-weight:normal;font-stretch:normal;font-family:'Typo Round Bold Demo';-inkscape-font-specification:'Typo Round Bold Demo';fill:#ef8829;fill-opacity:1;stroke-width:0.96102583"
           id="path861" />
        <path
           d="m -491.80012,372.81028 q -0.91973,0 -1.59545,-0.67572 -0.67572,-0.67572 -0.67572,-1.59545 v -0.0563 q 0,-0.91974 0.67572,-1.59546 0.67572,-0.67572 1.59545,-0.67572 h 1.08866 q 1.52038,0 2.59027,-1.06989 1.06989,-1.06989 1.08866,-2.60904 v -18.77004 q 0,-0.9385 0.65695,-1.61422 0.67572,-0.67572 1.61423,-0.67572 h 0.0375 q 0.9385,0 1.61422,0.67572 0.65695,0.67572 0.65695,1.61422 v 18.77004 q -0.0375,3.45369 -2.42133,5.85626 -2.3838,2.42133 -5.83749,2.42133 z m 7.03877,-31.81522 q -1.08867,0 -1.85824,-0.76957 -0.76957,-0.76957 -0.76957,-1.85823 0,-1.06989 0.76957,-1.83946 0.76957,-0.76958 1.85824,-0.76958 1.06989,0 1.83946,0.76958 0.78834,0.7508 0.78834,1.83946 0,1.10743 -0.78834,1.85823 -0.76957,0.76957 -1.83946,0.76957 z"
           style="font-style:normal;font-variant:normal;font-weight:normal;font-stretch:normal;font-family:'Typo Round Bold Demo';-inkscape-font-specification:'Typo Round Bold Demo';fill:#ef8829;fill-opacity:1;stroke-width:0.96102583"
           id="path863" />
        <path
           d="m -467.51169,343.47271 q 4.46726,0 7.6394,3.17214 3.17214,3.17213 3.17214,7.6394 v 8.54037 q 0,0.95727 -0.67572,1.59545 -0.67572,0.67572 -1.59546,0.67572 h -0.0563 q -0.91973,0 -1.59545,-0.67572 -0.67572,-0.63818 -0.67572,-1.59545 -2.13979,2.27117 -6.21288,2.27117 -4.46727,0 -7.63941,-3.17213 -3.17214,-3.17214 -3.17214,-7.63941 0,-4.46727 3.17214,-7.6394 3.17214,-3.17214 7.63941,-3.17214 z m 0,4.59866 q -2.59027,0 -4.41096,1.82069 -1.80193,1.8207 -1.80193,4.39219 0,2.59027 1.80193,4.41096 1.82069,1.80193 4.41096,1.80193 2.59026,0 4.39218,-1.80193 1.8207,-1.82069 1.8207,-4.41096 0,-2.57149 -1.8207,-4.39219 -1.82069,-1.82069 -4.39218,-1.82069 z"
           style="font-style:normal;font-variant:normal;font-weight:normal;font-stretch:normal;font-family:'Typo Round Bold Demo';-inkscape-font-specification:'Typo Round Bold Demo';fill:#ef8829;fill-opacity:1;stroke-width:0.96102583"
           id="path865" />
      </g>
      <g
         aria-label="n"
         style="font-style:normal;font-weight:normal;font-size:170.29928589px;line-height:1.25;font-family:sans-serif;letter-spacing:0px;word-spacing:0px;fill:#ef8829;fill-opacity:1;stroke:none;stroke-width:4.25733709;stroke-linecap:round;stroke-linejoin:miter;stroke-miterlimit:4;stroke-dasharray:none;stroke-opacity:1;paint-order:markers fill stroke"
         id="text817-35-2">
        <path
           d="m -516.7373,287.2498 q 0,4.24086 -2.99355,7.06809 -2.99354,2.99354 -7.06808,2.99354 h -0.24946 q -4.07455,0 -7.06809,-2.99354 -2.99354,-2.82723 -2.99354,-7.06809 v -45.48521 q 0,-16.63079 11.80786,-28.43865 11.80786,-11.80786 28.43865,-11.80786 16.54764,0 28.3555,11.80786 11.80786,11.80786 11.80786,28.43865 v 45.48521 q 0,4.24086 -2.99354,7.06809 -2.82724,2.99354 -7.06809,2.99354 h -0.16631 q -4.1577,0 -7.15124,-2.99354 -2.99354,-2.82723 -2.99354,-7.06809 v -45.48521 q 0,-8.23224 -5.73762,-14.05301 -5.82078,-5.82078 -14.05302,-5.82078 -8.31539,0 -14.13617,5.82078 -5.73762,5.82077 -5.73762,14.05301 z"
           style="font-style:normal;font-variant:normal;font-weight:normal;font-stretch:normal;font-family:'Typo Round Bold Demo';-inkscape-font-specification:'Typo Round Bold Demo';fill:#ef8829;fill-opacity:1;stroke:none;stroke-width:4.25733709;stroke-linecap:round;stroke-linejoin:miter;stroke-miterlimit:4;stroke-dasharray:none;stroke-opacity:1;paint-order:markers fill stroke"
           id="path868" />
      </g>
      <path
         inkscape:connector-curvature="0"
         id="text817"
         d="m -556.50222,201.72869 c -11.03177,0 -20.45589,3.90844 -28.27236,11.72491 -7.81647,7.87191 -11.72491,17.29579 -11.72491,28.27211 v 45.73483 c 0,2.82723 0.99799,5.18338 2.99368,7.0682 1.99568,1.9957 4.35161,2.9932 7.06796,2.9932 h 0.24958 c 2.71636,0 5.07225,-0.9975 7.06797,-2.9932 1.99569,-1.88482 2.99368,-4.24097 2.99368,-7.0682 v -45.73483 c 0,-5.43272 1.91272,-10.06152 5.73779,-13.8866 3.82509,-3.82508 8.45387,-5.73755 13.88661,-5.73755 5.43272,0 10.06175,1.91247 13.88684,5.73755 0.38614,0.38614 0.75219,0.78059 1.09919,1.18319 1.92892,-6.93911 5.49226,-13.28829 10.57383,-18.77575 -6.41806,-5.6777 -14.9374,-8.51786 -25.55986,-8.51786 z"
         style="font-style:normal;font-weight:normal;font-size:304.73031616px;line-height:1.25;font-family:sans-serif;letter-spacing:0px;word-spacing:0px;fill:#ef8829;fill-opacity:1;stroke:none;stroke-width:4.25733709;stroke-linecap:round;stroke-linejoin:miter;stroke-miterlimit:4;stroke-dasharray:none;stroke-opacity:1;paint-order:markers fill stroke" />
      <g
         transform="matrix(0.46707485,0,0,0.46707485,-316.44954,198.07722)"
         id="g1990">
        <path
           inkscape:connector-curvature="0"
           style="fill:#3f2d20;stroke-width:2.47830701"
           d="m -1718.4414,-298.85742 c -0.3749,-0.009 -0.7517,-0.008 -1.1289,0.004 -12.7589,0.415 -21.8028,12.60845 -18.5,24.93946 0,10e-6 12.1835,48.58656 15.4785,94.99414 3.9036,54.98072 -6.1703,126.779543 -15.0703,176.4589825 -1.8667,10.3248453 -3.4443,20.1805875 -4.7656,29.5410155 12.1607,7.036936 23.7733,14.888532 34.7871,23.582031 1.6653,-7.309095 3.3544,-15.141472 5.0625,-23.570312 7.3506,-36.5593165 17.2866,-94.454783 19.8965,-150.951177 27.4775,10.21301 66.3649,19.6217 107.6718,13.43555 41.4578,-6.20701 74.3958,-24.15973 94.7266,-38.12695 24.1323,-16.57795 37.5653,-31.12634 40.7207,-43.2461 1.1491,-4.40886 0.4277,-7.5664 0.4277,-7.5664 -2.0386,-13.55325 -20.2878,-25.83145 -54.2461,-36.50586 -23.532,-7.39639 -60.2829,-14.91015 -101.7421,-8.70117 -36.4753,5.46395 -67.5679,21.99863 -90.379,38.06054 -5.0963,-41.63482 -14.164,-77.15234 -14.164,-77.15234 -0.7223,-3.02855 -2.1468,-5.84582 -4.1602,-8.2207 -3.6673,-4.31289 -8.9911,-6.8373 -14.6152,-6.97461 z m 154.0312,89.26562 c 1.1658,-0.003 2.3263,0.003 3.4805,0.0215 32.9768,0.52879 61.1061,9.84771 76.5938,16.99023 -16.2846,14.55203 -51.3076,38.5628 -96.1934,45.2832 -39.2112,5.8741 -77.0921,-6.0888 -100.0254,-15.9121 19.043,-16.09386 51.7524,-38.62694 90.9551,-44.49805 8.5943,-1.28709 17.0293,-1.86034 25.1894,-1.88477 z"
           transform="scale(0.26458333)"
           id="path1154" />
        <path
           inkscape:connector-curvature="0"
           style="fill:#84bd93;stroke-width:0.65571874"
           d="m -444.6464,-43.182622 c 5.03884,-4.258676 13.69254,-10.219581 24.06492,-11.772977 11.8805,-1.779675 22.60611,1.583209 27.85127,4.002144 -4.3086,3.85026 -13.57593,10.203053 -25.45196,11.98116 -10.37501,1.554721 -20.39688,-1.610696 -26.46423,-4.210327 z"
           id="path1156" />
      </g>
    </g>
  </g>
</svg>
